<mxfile host="app.diagrams.net" modified="2021-05-01T14:19:13.883Z" agent="5.0 (Windows NT 10.0; Win64; x64) AppleWebKit/537.36 (KHTML, like Gecko) Chrome/90.0.4430.93 Safari/537.36 Edg/90.0.818.51" etag="WESp5d2HIg4_rzJMGkqo" version="14.6.9" type="github" pages="2">
  <diagram id="C5RBs43oDa-KdzZeNtuy" name="Page-1">
    <mxGraphModel dx="1422" dy="794" grid="1" gridSize="10" guides="1" tooltips="1" connect="1" arrows="1" fold="1" page="1" pageScale="1" pageWidth="827" pageHeight="1169" math="0" shadow="0">
      <root>
        <mxCell id="WIyWlLk6GJQsqaUBKTNV-0" />
        <mxCell id="WIyWlLk6GJQsqaUBKTNV-1" parent="WIyWlLk6GJQsqaUBKTNV-0" />
        <mxCell id="zkfFHV4jXpPFQw0GAbJ--0" value="Person" style="swimlane;fontStyle=2;align=center;verticalAlign=top;childLayout=stackLayout;horizontal=1;startSize=26;horizontalStack=0;resizeParent=1;resizeLast=0;collapsible=1;marginBottom=0;rounded=0;shadow=0;strokeWidth=1;" parent="WIyWlLk6GJQsqaUBKTNV-1" vertex="1">
          <mxGeometry x="220" y="120" width="160" height="138" as="geometry">
            <mxRectangle x="230" y="140" width="160" height="26" as="alternateBounds" />
          </mxGeometry>
        </mxCell>
        <mxCell id="zkfFHV4jXpPFQw0GAbJ--1" value="Name" style="text;align=left;verticalAlign=top;spacingLeft=4;spacingRight=4;overflow=hidden;rotatable=0;points=[[0,0.5],[1,0.5]];portConstraint=eastwest;" parent="zkfFHV4jXpPFQw0GAbJ--0" vertex="1">
          <mxGeometry y="26" width="160" height="26" as="geometry" />
        </mxCell>
        <mxCell id="zkfFHV4jXpPFQw0GAbJ--2" value="Phone Number" style="text;align=left;verticalAlign=top;spacingLeft=4;spacingRight=4;overflow=hidden;rotatable=0;points=[[0,0.5],[1,0.5]];portConstraint=eastwest;rounded=0;shadow=0;html=0;" parent="zkfFHV4jXpPFQw0GAbJ--0" vertex="1">
          <mxGeometry y="52" width="160" height="26" as="geometry" />
        </mxCell>
        <mxCell id="zkfFHV4jXpPFQw0GAbJ--3" value="Email Address" style="text;align=left;verticalAlign=top;spacingLeft=4;spacingRight=4;overflow=hidden;rotatable=0;points=[[0,0.5],[1,0.5]];portConstraint=eastwest;rounded=0;shadow=0;html=0;" parent="zkfFHV4jXpPFQw0GAbJ--0" vertex="1">
          <mxGeometry y="78" width="160" height="26" as="geometry" />
        </mxCell>
        <mxCell id="zkfFHV4jXpPFQw0GAbJ--4" value="" style="line;html=1;strokeWidth=1;align=left;verticalAlign=middle;spacingTop=-1;spacingLeft=3;spacingRight=3;rotatable=0;labelPosition=right;points=[];portConstraint=eastwest;" parent="zkfFHV4jXpPFQw0GAbJ--0" vertex="1">
          <mxGeometry y="104" width="160" height="8" as="geometry" />
        </mxCell>
        <mxCell id="zkfFHV4jXpPFQw0GAbJ--5" value="Purchase Parking Pass" style="text;align=left;verticalAlign=top;spacingLeft=4;spacingRight=4;overflow=hidden;rotatable=0;points=[[0,0.5],[1,0.5]];portConstraint=eastwest;" parent="zkfFHV4jXpPFQw0GAbJ--0" vertex="1">
          <mxGeometry y="112" width="160" height="26" as="geometry" />
        </mxCell>
        <mxCell id="zkfFHV4jXpPFQw0GAbJ--6" value="Student" style="swimlane;fontStyle=0;align=center;verticalAlign=top;childLayout=stackLayout;horizontal=1;startSize=26;horizontalStack=0;resizeParent=1;resizeLast=0;collapsible=1;marginBottom=0;rounded=0;shadow=0;strokeWidth=1;" parent="WIyWlLk6GJQsqaUBKTNV-1" vertex="1">
          <mxGeometry x="120" y="360" width="160" height="138" as="geometry">
            <mxRectangle x="130" y="380" width="160" height="26" as="alternateBounds" />
          </mxGeometry>
        </mxCell>
        <mxCell id="zkfFHV4jXpPFQw0GAbJ--7" value="Student Number" style="text;align=left;verticalAlign=top;spacingLeft=4;spacingRight=4;overflow=hidden;rotatable=0;points=[[0,0.5],[1,0.5]];portConstraint=eastwest;" parent="zkfFHV4jXpPFQw0GAbJ--6" vertex="1">
          <mxGeometry y="26" width="160" height="26" as="geometry" />
        </mxCell>
        <mxCell id="zkfFHV4jXpPFQw0GAbJ--8" value="Average Mark" style="text;align=left;verticalAlign=top;spacingLeft=4;spacingRight=4;overflow=hidden;rotatable=0;points=[[0,0.5],[1,0.5]];portConstraint=eastwest;rounded=0;shadow=0;html=0;" parent="zkfFHV4jXpPFQw0GAbJ--6" vertex="1">
          <mxGeometry y="52" width="160" height="26" as="geometry" />
        </mxCell>
        <mxCell id="zkfFHV4jXpPFQw0GAbJ--9" value="" style="line;html=1;strokeWidth=1;align=left;verticalAlign=middle;spacingTop=-1;spacingLeft=3;spacingRight=3;rotatable=0;labelPosition=right;points=[];portConstraint=eastwest;" parent="zkfFHV4jXpPFQw0GAbJ--6" vertex="1">
          <mxGeometry y="78" width="160" height="8" as="geometry" />
        </mxCell>
        <mxCell id="zkfFHV4jXpPFQw0GAbJ--10" value="Is Eligible To Enroll" style="text;align=left;verticalAlign=top;spacingLeft=4;spacingRight=4;overflow=hidden;rotatable=0;points=[[0,0.5],[1,0.5]];portConstraint=eastwest;fontStyle=4" parent="zkfFHV4jXpPFQw0GAbJ--6" vertex="1">
          <mxGeometry y="86" width="160" height="26" as="geometry" />
        </mxCell>
        <mxCell id="zkfFHV4jXpPFQw0GAbJ--11" value="Get Seminars Taken" style="text;align=left;verticalAlign=top;spacingLeft=4;spacingRight=4;overflow=hidden;rotatable=0;points=[[0,0.5],[1,0.5]];portConstraint=eastwest;" parent="zkfFHV4jXpPFQw0GAbJ--6" vertex="1">
          <mxGeometry y="112" width="160" height="26" as="geometry" />
        </mxCell>
        <mxCell id="zkfFHV4jXpPFQw0GAbJ--12" value="" style="endArrow=block;endSize=10;endFill=0;shadow=0;strokeWidth=1;rounded=0;edgeStyle=elbowEdgeStyle;elbow=vertical;" parent="WIyWlLk6GJQsqaUBKTNV-1" source="zkfFHV4jXpPFQw0GAbJ--6" target="zkfFHV4jXpPFQw0GAbJ--0" edge="1">
          <mxGeometry width="160" relative="1" as="geometry">
            <mxPoint x="200" y="203" as="sourcePoint" />
            <mxPoint x="200" y="203" as="targetPoint" />
          </mxGeometry>
        </mxCell>
        <mxCell id="zkfFHV4jXpPFQw0GAbJ--13" value="Professor" style="swimlane;fontStyle=0;align=center;verticalAlign=top;childLayout=stackLayout;horizontal=1;startSize=26;horizontalStack=0;resizeParent=1;resizeLast=0;collapsible=1;marginBottom=0;rounded=0;shadow=0;strokeWidth=1;" parent="WIyWlLk6GJQsqaUBKTNV-1" vertex="1">
          <mxGeometry x="330" y="360" width="160" height="70" as="geometry">
            <mxRectangle x="340" y="380" width="170" height="26" as="alternateBounds" />
          </mxGeometry>
        </mxCell>
        <mxCell id="zkfFHV4jXpPFQw0GAbJ--14" value="Salary" style="text;align=left;verticalAlign=top;spacingLeft=4;spacingRight=4;overflow=hidden;rotatable=0;points=[[0,0.5],[1,0.5]];portConstraint=eastwest;" parent="zkfFHV4jXpPFQw0GAbJ--13" vertex="1">
          <mxGeometry y="26" width="160" height="26" as="geometry" />
        </mxCell>
        <mxCell id="zkfFHV4jXpPFQw0GAbJ--15" value="" style="line;html=1;strokeWidth=1;align=left;verticalAlign=middle;spacingTop=-1;spacingLeft=3;spacingRight=3;rotatable=0;labelPosition=right;points=[];portConstraint=eastwest;" parent="zkfFHV4jXpPFQw0GAbJ--13" vertex="1">
          <mxGeometry y="52" width="160" height="8" as="geometry" />
        </mxCell>
        <mxCell id="zkfFHV4jXpPFQw0GAbJ--16" value="" style="endArrow=block;endSize=10;endFill=0;shadow=0;strokeWidth=1;rounded=0;edgeStyle=elbowEdgeStyle;elbow=vertical;" parent="WIyWlLk6GJQsqaUBKTNV-1" source="zkfFHV4jXpPFQw0GAbJ--13" target="zkfFHV4jXpPFQw0GAbJ--0" edge="1">
          <mxGeometry width="160" relative="1" as="geometry">
            <mxPoint x="210" y="373" as="sourcePoint" />
            <mxPoint x="310" y="271" as="targetPoint" />
          </mxGeometry>
        </mxCell>
        <mxCell id="zkfFHV4jXpPFQw0GAbJ--17" value="Address" style="swimlane;fontStyle=0;align=center;verticalAlign=top;childLayout=stackLayout;horizontal=1;startSize=26;horizontalStack=0;resizeParent=1;resizeLast=0;collapsible=1;marginBottom=0;rounded=0;shadow=0;strokeWidth=1;" parent="WIyWlLk6GJQsqaUBKTNV-1" vertex="1">
          <mxGeometry x="508" y="120" width="160" height="216" as="geometry">
            <mxRectangle x="550" y="140" width="160" height="26" as="alternateBounds" />
          </mxGeometry>
        </mxCell>
        <mxCell id="zkfFHV4jXpPFQw0GAbJ--18" value="Street" style="text;align=left;verticalAlign=top;spacingLeft=4;spacingRight=4;overflow=hidden;rotatable=0;points=[[0,0.5],[1,0.5]];portConstraint=eastwest;" parent="zkfFHV4jXpPFQw0GAbJ--17" vertex="1">
          <mxGeometry y="26" width="160" height="26" as="geometry" />
        </mxCell>
        <mxCell id="zkfFHV4jXpPFQw0GAbJ--19" value="City" style="text;align=left;verticalAlign=top;spacingLeft=4;spacingRight=4;overflow=hidden;rotatable=0;points=[[0,0.5],[1,0.5]];portConstraint=eastwest;rounded=0;shadow=0;html=0;" parent="zkfFHV4jXpPFQw0GAbJ--17" vertex="1">
          <mxGeometry y="52" width="160" height="26" as="geometry" />
        </mxCell>
        <mxCell id="zkfFHV4jXpPFQw0GAbJ--20" value="State" style="text;align=left;verticalAlign=top;spacingLeft=4;spacingRight=4;overflow=hidden;rotatable=0;points=[[0,0.5],[1,0.5]];portConstraint=eastwest;rounded=0;shadow=0;html=0;" parent="zkfFHV4jXpPFQw0GAbJ--17" vertex="1">
          <mxGeometry y="78" width="160" height="26" as="geometry" />
        </mxCell>
        <mxCell id="zkfFHV4jXpPFQw0GAbJ--21" value="Postal Code" style="text;align=left;verticalAlign=top;spacingLeft=4;spacingRight=4;overflow=hidden;rotatable=0;points=[[0,0.5],[1,0.5]];portConstraint=eastwest;rounded=0;shadow=0;html=0;" parent="zkfFHV4jXpPFQw0GAbJ--17" vertex="1">
          <mxGeometry y="104" width="160" height="26" as="geometry" />
        </mxCell>
        <mxCell id="zkfFHV4jXpPFQw0GAbJ--22" value="Country" style="text;align=left;verticalAlign=top;spacingLeft=4;spacingRight=4;overflow=hidden;rotatable=0;points=[[0,0.5],[1,0.5]];portConstraint=eastwest;rounded=0;shadow=0;html=0;" parent="zkfFHV4jXpPFQw0GAbJ--17" vertex="1">
          <mxGeometry y="130" width="160" height="26" as="geometry" />
        </mxCell>
        <mxCell id="zkfFHV4jXpPFQw0GAbJ--23" value="" style="line;html=1;strokeWidth=1;align=left;verticalAlign=middle;spacingTop=-1;spacingLeft=3;spacingRight=3;rotatable=0;labelPosition=right;points=[];portConstraint=eastwest;" parent="zkfFHV4jXpPFQw0GAbJ--17" vertex="1">
          <mxGeometry y="156" width="160" height="8" as="geometry" />
        </mxCell>
        <mxCell id="zkfFHV4jXpPFQw0GAbJ--24" value="Validate" style="text;align=left;verticalAlign=top;spacingLeft=4;spacingRight=4;overflow=hidden;rotatable=0;points=[[0,0.5],[1,0.5]];portConstraint=eastwest;" parent="zkfFHV4jXpPFQw0GAbJ--17" vertex="1">
          <mxGeometry y="164" width="160" height="26" as="geometry" />
        </mxCell>
        <mxCell id="zkfFHV4jXpPFQw0GAbJ--25" value="Output As Label" style="text;align=left;verticalAlign=top;spacingLeft=4;spacingRight=4;overflow=hidden;rotatable=0;points=[[0,0.5],[1,0.5]];portConstraint=eastwest;" parent="zkfFHV4jXpPFQw0GAbJ--17" vertex="1">
          <mxGeometry y="190" width="160" height="26" as="geometry" />
        </mxCell>
        <mxCell id="zkfFHV4jXpPFQw0GAbJ--26" value="" style="endArrow=open;shadow=0;strokeWidth=1;rounded=0;endFill=1;edgeStyle=elbowEdgeStyle;elbow=vertical;" parent="WIyWlLk6GJQsqaUBKTNV-1" source="zkfFHV4jXpPFQw0GAbJ--0" target="zkfFHV4jXpPFQw0GAbJ--17" edge="1">
          <mxGeometry x="0.5" y="41" relative="1" as="geometry">
            <mxPoint x="380" y="192" as="sourcePoint" />
            <mxPoint x="540" y="192" as="targetPoint" />
            <mxPoint x="-40" y="32" as="offset" />
          </mxGeometry>
        </mxCell>
        <mxCell id="zkfFHV4jXpPFQw0GAbJ--27" value="0..1" style="resizable=0;align=left;verticalAlign=bottom;labelBackgroundColor=none;fontSize=12;" parent="zkfFHV4jXpPFQw0GAbJ--26" connectable="0" vertex="1">
          <mxGeometry x="-1" relative="1" as="geometry">
            <mxPoint y="4" as="offset" />
          </mxGeometry>
        </mxCell>
        <mxCell id="zkfFHV4jXpPFQw0GAbJ--28" value="1" style="resizable=0;align=right;verticalAlign=bottom;labelBackgroundColor=none;fontSize=12;" parent="zkfFHV4jXpPFQw0GAbJ--26" connectable="0" vertex="1">
          <mxGeometry x="1" relative="1" as="geometry">
            <mxPoint x="-7" y="4" as="offset" />
          </mxGeometry>
        </mxCell>
        <mxCell id="zkfFHV4jXpPFQw0GAbJ--29" value="lives at" style="text;html=1;resizable=0;points=[];;align=center;verticalAlign=middle;labelBackgroundColor=none;rounded=0;shadow=0;strokeWidth=1;fontSize=12;" parent="zkfFHV4jXpPFQw0GAbJ--26" vertex="1" connectable="0">
          <mxGeometry x="0.5" y="49" relative="1" as="geometry">
            <mxPoint x="-38" y="40" as="offset" />
          </mxGeometry>
        </mxCell>
      </root>
    </mxGraphModel>
  </diagram>
  <diagram id="IiDlH3cJ2daCkO8JY-Nc" name="Class Diagram">
    <mxGraphModel dx="2249" dy="794" grid="1" gridSize="10" guides="1" tooltips="1" connect="1" arrows="1" fold="1" page="1" pageScale="1" pageWidth="827" pageHeight="1169" math="0" shadow="0">
      <root>
        <mxCell id="JoJN99l91C5nv3z_q42w-0" />
        <mxCell id="JoJN99l91C5nv3z_q42w-1" parent="JoJN99l91C5nv3z_q42w-0" />
        <mxCell id="R2CkASbWOf3mzK9Li32K-0" value="Item" style="swimlane;fontStyle=0;childLayout=stackLayout;horizontal=1;startSize=26;fillColor=none;horizontalStack=0;resizeParent=1;resizeParentMax=0;resizeLast=0;collapsible=1;marginBottom=0;" vertex="1" parent="JoJN99l91C5nv3z_q42w-1">
          <mxGeometry x="780" y="1660" width="140" height="130" as="geometry" />
        </mxCell>
        <mxCell id="R2CkASbWOf3mzK9Li32K-1" value="+ code: int?" style="text;strokeColor=none;fillColor=none;align=left;verticalAlign=top;spacingLeft=4;spacingRight=4;overflow=hidden;rotatable=0;points=[[0,0.5],[1,0.5]];portConstraint=eastwest;" vertex="1" parent="R2CkASbWOf3mzK9Li32K-0">
          <mxGeometry y="26" width="140" height="26" as="geometry" />
        </mxCell>
        <mxCell id="R2CkASbWOf3mzK9Li32K-2" value="+ BooleanType: bool?" style="text;strokeColor=none;fillColor=none;align=left;verticalAlign=top;spacingLeft=4;spacingRight=4;overflow=hidden;rotatable=0;points=[[0,0.5],[1,0.5]];portConstraint=eastwest;" vertex="1" parent="R2CkASbWOf3mzK9Li32K-0">
          <mxGeometry y="52" width="140" height="26" as="geometry" />
        </mxCell>
        <mxCell id="R2CkASbWOf3mzK9Li32K-3" value="+ Name: string?" style="text;strokeColor=none;fillColor=none;align=left;verticalAlign=top;spacingLeft=4;spacingRight=4;overflow=hidden;rotatable=0;points=[[0,0.5],[1,0.5]];portConstraint=eastwest;" vertex="1" parent="R2CkASbWOf3mzK9Li32K-0">
          <mxGeometry y="78" width="140" height="26" as="geometry" />
        </mxCell>
        <mxCell id="R2CkASbWOf3mzK9Li32K-5" value="# xElement: XElement " style="text;strokeColor=none;fillColor=none;align=left;verticalAlign=top;spacingLeft=4;spacingRight=4;overflow=hidden;rotatable=0;points=[[0,0.5],[1,0.5]];portConstraint=eastwest;" vertex="1" parent="R2CkASbWOf3mzK9Li32K-0">
          <mxGeometry y="104" width="140" height="26" as="geometry" />
        </mxCell>
        <mxCell id="R2CkASbWOf3mzK9Li32K-4" value="&lt;h1&gt;GUIConfiguration&lt;/h1&gt;&lt;p&gt;&amp;lt;Tester Type=&quot;SG9000G5&quot; Version=&quot;0.1b&quot;&amp;gt;&lt;/p&gt;&lt;p&gt;&amp;nbsp; &amp;lt;SlotSize&amp;gt;20&amp;lt;/SlotSize&amp;gt;&lt;/p&gt;&lt;p&gt;&amp;nbsp; &amp;lt;SiteSize&amp;gt;32&amp;lt;/SiteSize&amp;gt;&lt;/p&gt;&lt;p&gt;&amp;nbsp; &amp;lt;BoardCard code=&quot;0&quot;&amp;gt;Null&amp;lt;/BoardCard&amp;gt;&lt;/p&gt;&lt;p&gt;&amp;nbsp; &amp;lt;BoardCard code=&quot;2&quot;&amp;gt;Interface Card0&amp;lt;/BoardCard&amp;gt;&lt;/p&gt;&lt;p&gt;&amp;nbsp; &amp;lt;BoardCard code=&quot;3&quot;&amp;gt;MPE64&amp;lt;/BoardCard&amp;gt;&lt;/p&gt;&lt;p&gt;&amp;nbsp; &amp;lt;TesterInformation Version=&quot;0.1b&quot;&amp;gt;&lt;/p&gt;&lt;p&gt;&amp;nbsp; &amp;nbsp; &amp;lt;FieldSize&amp;gt;8&amp;lt;/FieldSize&amp;gt;&lt;/p&gt;&lt;p&gt;&amp;nbsp; &amp;nbsp; &amp;lt;Mapping code=&quot;0&quot;/&amp;gt;&lt;/p&gt;&lt;p&gt;&amp;nbsp; &amp;nbsp; &amp;lt;Mapping code=&quot;2&quot;&amp;gt;&lt;/p&gt;&lt;p&gt;&amp;nbsp; &amp;nbsp; &amp;nbsp; &amp;lt;Field Index=&quot;0&quot;&amp;gt;Field0_Name&amp;lt;/Field&amp;gt;&lt;/p&gt;&lt;p&gt;&amp;nbsp; &amp;nbsp; &amp;lt;/Mapping&amp;gt;&lt;/p&gt;&lt;p&gt;&amp;nbsp; &amp;nbsp; &amp;lt;Mapping code=&quot;3&quot;&amp;gt;&lt;/p&gt;&lt;p&gt;&amp;nbsp; &amp;nbsp; &amp;nbsp; &amp;lt;Field Index=&quot;0&quot;&amp;gt;Field0_Name&amp;lt;/Field&amp;gt;&lt;/p&gt;&lt;p&gt;&amp;nbsp; &amp;nbsp; &amp;nbsp; &amp;lt;Field Index=&quot;1&quot;&amp;gt;Field1_Name&amp;lt;/Field&amp;gt;&lt;/p&gt;&lt;p&gt;&amp;nbsp; &amp;nbsp; &amp;lt;/Mapping&amp;gt;&lt;/p&gt;&lt;p&gt;&amp;nbsp; &amp;lt;/TesterInformation&amp;gt;&lt;/p&gt;&lt;p&gt;&amp;nbsp; &amp;lt;TestProgramEditor Version=&quot;0.1b&quot;&amp;gt;&lt;/p&gt;&lt;p&gt;&amp;nbsp; &amp;nbsp; &amp;lt;HBinSize&amp;gt;64&amp;lt;/HBinSize&amp;gt;&lt;/p&gt;&lt;p&gt;&amp;nbsp; &amp;nbsp; &amp;lt;SBinSize&amp;gt;100000&amp;lt;/SBinSize&amp;gt;&lt;/p&gt;&lt;p&gt;&amp;nbsp; &amp;nbsp; &amp;lt;PatternMemorySize&amp;gt;34359738368&amp;lt;/PatternMemorySize&amp;gt;&lt;/p&gt;&lt;p&gt;&amp;nbsp; &amp;nbsp; &amp;lt;PatternARowSize&amp;gt;64&amp;lt;/PatternARowSize&amp;gt;&lt;/p&gt;&lt;p&gt;&amp;nbsp; &amp;nbsp; &amp;lt;PatternParitySizeOfUnit&amp;gt;64&amp;lt;/PatternParitySizeOfUnit&amp;gt;&lt;/p&gt;&lt;p&gt;&amp;nbsp; &amp;nbsp; &amp;lt;PatternRowCntOfUnit&amp;gt;2048&amp;lt;/PatternRowCntOfUnit&amp;gt;&lt;/p&gt;&lt;p&gt;&amp;nbsp; &amp;nbsp; &amp;lt;Pin code=&quot;4&quot; ChSize=&quot;0&quot;&amp;gt;GND&amp;lt;/Pin&amp;gt;&lt;/p&gt;&lt;p&gt;&amp;nbsp; &amp;nbsp; &amp;lt;Pin code=&quot;0&quot; ChSize=&quot;0&quot;&amp;gt;Unknown&amp;lt;/Pin&amp;gt;&lt;/p&gt;&lt;p&gt;&amp;nbsp; &amp;nbsp; &amp;lt;InterfaceCard code=&quot;2&quot;&amp;gt;&lt;/p&gt;&lt;p&gt;&amp;nbsp; &amp;nbsp; &amp;nbsp; &amp;lt;Pin code=&quot;5&quot; ChSize=&quot;128&quot;&amp;gt;Utility&amp;lt;/Pin&amp;gt;&lt;/p&gt;&lt;p&gt;&amp;nbsp; &amp;nbsp; &amp;lt;/InterfaceCard&amp;gt;&lt;/p&gt;&lt;p&gt;&amp;nbsp; &amp;nbsp; &amp;lt;BoardCard code=&quot;0&quot; /&amp;gt;&lt;/p&gt;&lt;p&gt;&amp;nbsp; &amp;nbsp; &amp;lt;BoardCard code=&quot;3&quot;&amp;gt;&lt;/p&gt;&lt;p&gt;&amp;nbsp; &amp;nbsp; &amp;nbsp; &amp;lt;Pin code=&quot;1&quot; ChSize=&quot;64&quot;&amp;gt;IO&amp;lt;/Pin&amp;gt;&lt;/p&gt;&lt;p&gt;&amp;nbsp; &amp;nbsp; &amp;nbsp; &amp;lt;Pin code=&quot;2&quot; ChSize=&quot;8&quot;&amp;gt;DPS&amp;lt;/Pin&amp;gt;&lt;/p&gt;&lt;p&gt;&amp;nbsp; &amp;nbsp; &amp;nbsp; &amp;lt;Pin code=&quot;3&quot; ChSize=&quot;1&quot;&amp;gt;BPMU&amp;lt;/Pin&amp;gt;&lt;/p&gt;&lt;p&gt;&amp;nbsp; &amp;nbsp; &amp;lt;/BoardCard&amp;gt;&lt;/p&gt;&lt;p&gt;&amp;nbsp; &amp;nbsp; &amp;lt;Signal&amp;gt;&lt;/p&gt;&lt;p&gt;&amp;nbsp; &amp;nbsp; &amp;nbsp; &amp;lt;PinSize&amp;gt;2000&amp;lt;/PinSize&amp;gt;&lt;/p&gt;&lt;p&gt;&amp;nbsp; &amp;nbsp; &amp;nbsp; &amp;lt;PinGroupSize&amp;gt;1024&amp;lt;/PinGroupSize&amp;gt;&lt;/p&gt;&lt;p&gt;&amp;nbsp; &amp;nbsp; &amp;lt;/Signal&amp;gt;&lt;/p&gt;&lt;p&gt;&amp;nbsp; &amp;nbsp; &amp;lt;FlowTable&amp;gt;&lt;/p&gt;&lt;p&gt;&amp;nbsp; &amp;nbsp; &amp;nbsp; &amp;lt;TestItemSize&amp;gt;1024&amp;lt;/TestItemSize&amp;gt;&lt;/p&gt;&lt;p&gt;&amp;nbsp; &amp;nbsp; &amp;nbsp; &amp;lt;CustomReport&amp;gt;&lt;/p&gt;&lt;p&gt;&amp;nbsp; &amp;nbsp; &amp;nbsp; &amp;nbsp; &amp;lt;Item code=&quot;1&quot; BooleanType=&quot;true&quot;&amp;gt;Show&amp;lt;/Item&amp;gt;&lt;/p&gt;&lt;p&gt;&amp;nbsp; &amp;nbsp; &amp;nbsp; &amp;nbsp; &amp;lt;Item code=&quot;0&quot; BooleanType=&quot;false&quot;&amp;gt;Hide&amp;lt;/Item&amp;gt;&lt;/p&gt;&lt;p&gt;&amp;nbsp; &amp;nbsp; &amp;nbsp; &amp;lt;/CustomReport&amp;gt;&lt;/p&gt;&lt;p&gt;&amp;nbsp; &amp;nbsp; &amp;nbsp; &amp;lt;StopOnFail&amp;gt;&lt;/p&gt;&lt;p&gt;&amp;nbsp; &amp;nbsp; &amp;nbsp; &amp;nbsp; &amp;lt;Item code=&quot;1&quot; BooleanType=&quot;true&quot;&amp;gt;ON&amp;lt;/Item&amp;gt;&lt;/p&gt;&lt;p&gt;&amp;nbsp; &amp;nbsp; &amp;nbsp; &amp;nbsp; &amp;lt;Item code=&quot;0&quot; BooleanType=&quot;false&quot;&amp;gt;OFF&amp;lt;/Item&amp;gt;&lt;/p&gt;&lt;p&gt;&amp;nbsp; &amp;nbsp; &amp;nbsp; &amp;lt;/StopOnFail&amp;gt;&lt;/p&gt;&lt;p&gt;&amp;nbsp; &amp;nbsp; &amp;nbsp; &amp;lt;ContinueOnACFail&amp;gt;&lt;/p&gt;&lt;p&gt;&amp;nbsp; &amp;nbsp; &amp;nbsp; &amp;nbsp; &amp;lt;Item code=&quot;1&quot; BooleanType=&quot;true&quot;&amp;gt;ON&amp;lt;/Item&amp;gt;&lt;/p&gt;&lt;p&gt;&amp;nbsp; &amp;nbsp; &amp;nbsp; &amp;nbsp; &amp;lt;Item code=&quot;0&quot; BooleanType=&quot;false&quot;&amp;gt;OFF&amp;lt;/Item&amp;gt;&lt;/p&gt;&lt;p&gt;&amp;nbsp; &amp;nbsp; &amp;nbsp; &amp;lt;/ContinueOnACFail&amp;gt;&lt;/p&gt;&lt;p&gt;&amp;nbsp; &amp;nbsp; &amp;nbsp; &amp;lt;BinType&amp;gt;&lt;/p&gt;&lt;p&gt;&amp;nbsp; &amp;nbsp; &amp;nbsp; &amp;nbsp; &amp;lt;Item code=&quot;1&quot; BooleanType=&quot;true&quot;&amp;gt;Good&amp;lt;/Item&amp;gt;&lt;/p&gt;&lt;p&gt;&amp;nbsp; &amp;nbsp; &amp;nbsp; &amp;nbsp; &amp;lt;Item code=&quot;0&quot; BooleanType=&quot;false&quot;&amp;gt;Bad&amp;lt;/Item&amp;gt;&lt;/p&gt;&lt;p&gt;&amp;nbsp; &amp;nbsp; &amp;nbsp; &amp;lt;/BinType&amp;gt;&lt;/p&gt;&lt;p&gt;&amp;nbsp; &amp;nbsp; &amp;nbsp; &amp;lt;AutoPowerDown&amp;gt;&lt;/p&gt;&lt;p&gt;&amp;nbsp; &amp;nbsp; &amp;nbsp; &amp;nbsp; &amp;lt;Item code=&quot;0&quot; BooleanType=&quot;false&quot;&amp;gt;OFF&amp;lt;/Item&amp;gt;&lt;/p&gt;&lt;p&gt;&amp;nbsp; &amp;nbsp; &amp;nbsp; &amp;nbsp; &amp;lt;Item code=&quot;1&quot; BooleanType=&quot;true&quot;&amp;gt;ON&amp;lt;/Item&amp;gt;&lt;/p&gt;&lt;p&gt;&amp;nbsp; &amp;nbsp; &amp;nbsp; &amp;lt;/AutoPowerDown&amp;gt;&lt;/p&gt;&lt;p&gt;&amp;nbsp; &amp;nbsp; &amp;nbsp; &amp;lt;SiteControl&amp;gt;&lt;/p&gt;&lt;p&gt;&amp;nbsp; &amp;nbsp; &amp;nbsp; &amp;nbsp; &amp;lt;Item code=&quot;0&quot;&amp;gt;Parallel;&amp;lt;/Item&amp;gt;&lt;/p&gt;&lt;p&gt;&amp;nbsp; &amp;nbsp; &amp;nbsp; &amp;nbsp; &amp;lt;Item code=&quot;1&quot;&amp;gt;Serial;&amp;lt;/Item&amp;gt;&lt;/p&gt;&lt;p&gt;&amp;nbsp; &amp;nbsp; &amp;nbsp; &amp;lt;/SiteControl&amp;gt;&lt;/p&gt;&lt;p&gt;&amp;nbsp; &amp;nbsp; &amp;lt;/FlowTable&amp;gt;&lt;/p&gt;&lt;p&gt;&amp;nbsp; &amp;nbsp; &amp;lt;Limit&amp;gt;&lt;/p&gt;&lt;p&gt;&amp;nbsp; &amp;nbsp; &amp;nbsp; &amp;lt;LimitItemSize&amp;gt;1024&amp;lt;/LimitItemSize&amp;gt;&lt;/p&gt;&lt;p&gt;&amp;nbsp; &amp;nbsp; &amp;nbsp; &amp;lt;Unit&amp;gt;&lt;/p&gt;&lt;p&gt;&amp;nbsp; &amp;nbsp; &amp;nbsp; &amp;nbsp; &amp;lt;Item code=&quot;0&quot;&amp;gt;S&amp;lt;/Item&amp;gt;&lt;/p&gt;&lt;p&gt;&amp;nbsp; &amp;nbsp; &amp;nbsp; &amp;nbsp; &amp;lt;Item code=&quot;0&quot;&amp;gt;SEC&amp;lt;/Item&amp;gt;&lt;/p&gt;&lt;p&gt;&amp;nbsp; &amp;nbsp; &amp;nbsp; &amp;nbsp; &amp;lt;Item code=&quot;1&quot;&amp;gt;mS&amp;lt;/Item&amp;gt;&lt;/p&gt;&lt;p&gt;&amp;nbsp; &amp;nbsp; &amp;nbsp; &amp;nbsp; &amp;lt;Item code=&quot;1&quot;&amp;gt;mSEC&amp;lt;/Item&amp;gt;&lt;/p&gt;&lt;p&gt;&amp;nbsp; &amp;nbsp; &amp;nbsp; &amp;nbsp; &amp;lt;Item code=&quot;2&quot;&amp;gt;uS&amp;lt;/Item&amp;gt;&lt;/p&gt;&lt;p&gt;&amp;nbsp; &amp;nbsp; &amp;nbsp; &amp;nbsp; &amp;lt;Item code=&quot;2&quot;&amp;gt;uSEC&amp;lt;/Item&amp;gt;&lt;/p&gt;&lt;p&gt;&amp;nbsp; &amp;nbsp; &amp;nbsp; &amp;nbsp; &amp;lt;Item code=&quot;3&quot;&amp;gt;nS&amp;lt;/Item&amp;gt;&lt;/p&gt;&lt;p&gt;&amp;nbsp; &amp;nbsp; &amp;nbsp; &amp;nbsp; &amp;lt;Item code=&quot;3&quot;&amp;gt;nSEC&amp;lt;/Item&amp;gt;&lt;/p&gt;&lt;p&gt;&amp;nbsp; &amp;nbsp; &amp;nbsp; &amp;nbsp; &amp;lt;Item code=&quot;4&quot;&amp;gt;pS&amp;lt;/Item&amp;gt;&lt;/p&gt;&lt;p&gt;&amp;nbsp; &amp;nbsp; &amp;nbsp; &amp;nbsp; &amp;lt;Item code=&quot;4&quot;&amp;gt;pSEC&amp;lt;/Item&amp;gt;&lt;/p&gt;&lt;p&gt;&amp;nbsp; &amp;nbsp; &amp;nbsp; &amp;nbsp; &amp;lt;Item code=&quot;5&quot;&amp;gt;V&amp;lt;/Item&amp;gt;&lt;/p&gt;&lt;p&gt;&amp;nbsp; &amp;nbsp; &amp;nbsp; &amp;nbsp; &amp;lt;Item code=&quot;6&quot;&amp;gt;mV&amp;lt;/Item&amp;gt;&lt;/p&gt;&lt;p&gt;&amp;nbsp; &amp;nbsp; &amp;nbsp; &amp;nbsp; &amp;lt;Item code=&quot;7&quot;&amp;gt;uV&amp;lt;/Item&amp;gt;&lt;/p&gt;&lt;p&gt;&amp;nbsp; &amp;nbsp; &amp;nbsp; &amp;nbsp; &amp;lt;Item code=&quot;8&quot;&amp;gt;nV&amp;lt;/Item&amp;gt;&lt;/p&gt;&lt;p&gt;&amp;nbsp; &amp;nbsp; &amp;nbsp; &amp;nbsp; &amp;lt;Item code=&quot;9&quot;&amp;gt;pV&amp;lt;/Item&amp;gt;&lt;/p&gt;&lt;p&gt;&amp;nbsp; &amp;nbsp; &amp;nbsp; &amp;nbsp; &amp;lt;Item code=&quot;10&quot;&amp;gt;A&amp;lt;/Item&amp;gt;&lt;/p&gt;&lt;p&gt;&amp;nbsp; &amp;nbsp; &amp;nbsp; &amp;nbsp; &amp;lt;Item code=&quot;11&quot;&amp;gt;mA&amp;lt;/Item&amp;gt;&lt;/p&gt;&lt;p&gt;&amp;nbsp; &amp;nbsp; &amp;nbsp; &amp;nbsp; &amp;lt;Item code=&quot;12&quot;&amp;gt;uA&amp;lt;/Item&amp;gt;&lt;/p&gt;&lt;p&gt;&amp;nbsp; &amp;nbsp; &amp;nbsp; &amp;nbsp; &amp;lt;Item code=&quot;13&quot;&amp;gt;nA&amp;lt;/Item&amp;gt;&lt;/p&gt;&lt;p&gt;&amp;nbsp; &amp;nbsp; &amp;nbsp; &amp;nbsp; &amp;lt;Item code=&quot;14&quot;&amp;gt;pA&amp;lt;/Item&amp;gt;&lt;/p&gt;&lt;p&gt;&amp;nbsp; &amp;nbsp; &amp;nbsp; &amp;lt;/Unit&amp;gt;&lt;/p&gt;&lt;p&gt;&amp;nbsp; &amp;nbsp; &amp;nbsp; &amp;lt;Condition&amp;gt;&lt;/p&gt;&lt;p&gt;&amp;nbsp; &amp;nbsp; &amp;nbsp; &amp;nbsp; &amp;lt;Item code=&quot;1&quot; BooleanType=&quot;true&quot;&amp;gt;Beyond&amp;lt;/Item&amp;gt;&lt;/p&gt;&lt;p&gt;&amp;nbsp; &amp;nbsp; &amp;nbsp; &amp;nbsp; &amp;lt;Item code=&quot;0&quot; BooleanType=&quot;false&quot;&amp;gt;Between&amp;lt;/Item&amp;gt;&lt;/p&gt;&lt;p&gt;&amp;nbsp; &amp;nbsp; &amp;nbsp; &amp;lt;/Condition&amp;gt;&lt;/p&gt;&lt;p&gt;&amp;nbsp; &amp;nbsp; &amp;lt;/Limit&amp;gt;&lt;/p&gt;&lt;p&gt;&amp;nbsp; &amp;nbsp; &amp;lt;TimingSet&amp;gt;&lt;/p&gt;&lt;p&gt;&amp;nbsp; &amp;nbsp; &amp;nbsp; &amp;lt;TimingSetSize&amp;gt;32&amp;lt;/TimingSetSize&amp;gt;&lt;/p&gt;&lt;p&gt;&amp;nbsp; &amp;nbsp; &amp;nbsp; &amp;lt;PerSetSize&amp;gt;100&amp;lt;/PerSetSize&amp;gt;&lt;/p&gt;&lt;p&gt;&amp;nbsp; &amp;nbsp; &amp;nbsp; &amp;lt;Format&amp;gt;&lt;/p&gt;&lt;p&gt;&amp;nbsp; &amp;nbsp; &amp;nbsp; &amp;nbsp; &amp;lt;Item code=&quot;0&quot; Edges=&quot;1&quot;&amp;gt;NRZ&amp;lt;/Item&amp;gt;&lt;/p&gt;&lt;p&gt;&amp;nbsp; &amp;nbsp; &amp;nbsp; &amp;nbsp; &amp;lt;Item code=&quot;1&quot; Edges=&quot;1,2&quot;&amp;gt;RZ&amp;lt;/Item&amp;gt;&lt;/p&gt;&lt;p&gt;&amp;nbsp; &amp;nbsp; &amp;nbsp; &amp;nbsp; &amp;lt;Item code=&quot;2&quot; Edges=&quot;1,2&quot;&amp;gt;R1&amp;lt;/Item&amp;gt;&lt;/p&gt;&lt;p&gt;&amp;nbsp; &amp;nbsp; &amp;nbsp; &amp;nbsp; &amp;lt;Item code=&quot;3&quot; Edges=&quot;1,2&quot;&amp;gt;EXOR&amp;lt;/Item&amp;gt;&lt;/p&gt;&lt;p&gt;&amp;nbsp; &amp;nbsp; &amp;nbsp; &amp;nbsp; &amp;lt;Item code=&quot;4&quot; Edges=&quot;&quot;&amp;gt;LEVEL&amp;lt;/Item&amp;gt;&lt;/p&gt;&lt;p&gt;&amp;nbsp; &amp;nbsp; &amp;nbsp; &amp;lt;/Format&amp;gt;&lt;/p&gt;&lt;p&gt;&amp;nbsp; &amp;nbsp; &amp;lt;/TimingSet&amp;gt;&lt;/p&gt;&lt;p&gt;&amp;nbsp; &amp;lt;/TestProgramEditor&amp;gt;&lt;/p&gt;&lt;p&gt;&amp;lt;/Tester&amp;gt;&lt;/p&gt;" style="text;html=1;strokeColor=none;fillColor=none;spacing=5;spacingTop=-20;whiteSpace=wrap;overflow=hidden;rounded=0;" vertex="1" parent="JoJN99l91C5nv3z_q42w-1">
          <mxGeometry x="-210" y="70" width="370" height="2890" as="geometry" />
        </mxCell>
        <mxCell id="R2CkASbWOf3mzK9Li32K-6" value="Pin" style="swimlane;fontStyle=0;childLayout=stackLayout;horizontal=1;startSize=26;fillColor=none;horizontalStack=0;resizeParent=1;resizeParentMax=0;resizeLast=0;collapsible=1;marginBottom=0;" vertex="1" parent="JoJN99l91C5nv3z_q42w-1">
          <mxGeometry x="770" y="1020" width="140" height="130" as="geometry" />
        </mxCell>
        <mxCell id="R2CkASbWOf3mzK9Li32K-7" value="+ code: int" style="text;strokeColor=none;fillColor=none;align=left;verticalAlign=top;spacingLeft=4;spacingRight=4;overflow=hidden;rotatable=0;points=[[0,0.5],[1,0.5]];portConstraint=eastwest;" vertex="1" parent="R2CkASbWOf3mzK9Li32K-6">
          <mxGeometry y="26" width="140" height="26" as="geometry" />
        </mxCell>
        <mxCell id="R2CkASbWOf3mzK9Li32K-8" value="+ ChSize: int" style="text;strokeColor=none;fillColor=none;align=left;verticalAlign=top;spacingLeft=4;spacingRight=4;overflow=hidden;rotatable=0;points=[[0,0.5],[1,0.5]];portConstraint=eastwest;" vertex="1" parent="R2CkASbWOf3mzK9Li32K-6">
          <mxGeometry y="52" width="140" height="26" as="geometry" />
        </mxCell>
        <mxCell id="R2CkASbWOf3mzK9Li32K-9" value="+ Name: string" style="text;strokeColor=none;fillColor=none;align=left;verticalAlign=top;spacingLeft=4;spacingRight=4;overflow=hidden;rotatable=0;points=[[0,0.5],[1,0.5]];portConstraint=eastwest;" vertex="1" parent="R2CkASbWOf3mzK9Li32K-6">
          <mxGeometry y="78" width="140" height="26" as="geometry" />
        </mxCell>
        <mxCell id="R2CkASbWOf3mzK9Li32K-10" value="# xElement: XElement " style="text;strokeColor=none;fillColor=none;align=left;verticalAlign=top;spacingLeft=4;spacingRight=4;overflow=hidden;rotatable=0;points=[[0,0.5],[1,0.5]];portConstraint=eastwest;" vertex="1" parent="R2CkASbWOf3mzK9Li32K-6">
          <mxGeometry y="104" width="140" height="26" as="geometry" />
        </mxCell>
        <mxCell id="R2CkASbWOf3mzK9Li32K-11" value="BoardCard" style="swimlane;fontStyle=0;childLayout=stackLayout;horizontal=1;startSize=26;fillColor=none;horizontalStack=0;resizeParent=1;resizeParentMax=0;resizeLast=0;collapsible=1;marginBottom=0;" vertex="1" parent="JoJN99l91C5nv3z_q42w-1">
          <mxGeometry x="760" y="170" width="140" height="104" as="geometry" />
        </mxCell>
        <mxCell id="R2CkASbWOf3mzK9Li32K-12" value="+ code: int" style="text;strokeColor=none;fillColor=none;align=left;verticalAlign=top;spacingLeft=4;spacingRight=4;overflow=hidden;rotatable=0;points=[[0,0.5],[1,0.5]];portConstraint=eastwest;" vertex="1" parent="R2CkASbWOf3mzK9Li32K-11">
          <mxGeometry y="26" width="140" height="26" as="geometry" />
        </mxCell>
        <mxCell id="R2CkASbWOf3mzK9Li32K-13" value="+ Name: string" style="text;strokeColor=none;fillColor=none;align=left;verticalAlign=top;spacingLeft=4;spacingRight=4;overflow=hidden;rotatable=0;points=[[0,0.5],[1,0.5]];portConstraint=eastwest;" vertex="1" parent="R2CkASbWOf3mzK9Li32K-11">
          <mxGeometry y="52" width="140" height="26" as="geometry" />
        </mxCell>
        <mxCell id="R2CkASbWOf3mzK9Li32K-14" value="# xElement: XElement" style="text;strokeColor=none;fillColor=none;align=left;verticalAlign=top;spacingLeft=4;spacingRight=4;overflow=hidden;rotatable=0;points=[[0,0.5],[1,0.5]];portConstraint=eastwest;" vertex="1" parent="R2CkASbWOf3mzK9Li32K-11">
          <mxGeometry y="78" width="140" height="26" as="geometry" />
        </mxCell>
        <mxCell id="R2CkASbWOf3mzK9Li32K-15" value="Tester" style="swimlane;fontStyle=0;childLayout=stackLayout;horizontal=1;startSize=26;fillColor=none;horizontalStack=0;resizeParent=1;resizeParentMax=0;resizeLast=0;collapsible=1;marginBottom=0;" vertex="1" parent="JoJN99l91C5nv3z_q42w-1">
          <mxGeometry x="344" y="70" width="336" height="208" as="geometry" />
        </mxCell>
        <mxCell id="R2CkASbWOf3mzK9Li32K-16" value="+ Type: string" style="text;strokeColor=none;fillColor=none;align=left;verticalAlign=top;spacingLeft=4;spacingRight=4;overflow=hidden;rotatable=0;points=[[0,0.5],[1,0.5]];portConstraint=eastwest;" vertex="1" parent="R2CkASbWOf3mzK9Li32K-15">
          <mxGeometry y="26" width="336" height="26" as="geometry" />
        </mxCell>
        <mxCell id="R2CkASbWOf3mzK9Li32K-17" value="+ Version: string" style="text;strokeColor=none;fillColor=none;align=left;verticalAlign=top;spacingLeft=4;spacingRight=4;overflow=hidden;rotatable=0;points=[[0,0.5],[1,0.5]];portConstraint=eastwest;" vertex="1" parent="R2CkASbWOf3mzK9Li32K-15">
          <mxGeometry y="52" width="336" height="26" as="geometry" />
        </mxCell>
        <mxCell id="R2CkASbWOf3mzK9Li32K-19" value="+ SlotSize: int" style="text;strokeColor=none;fillColor=none;align=left;verticalAlign=top;spacingLeft=4;spacingRight=4;overflow=hidden;rotatable=0;points=[[0,0.5],[1,0.5]];portConstraint=eastwest;" vertex="1" parent="R2CkASbWOf3mzK9Li32K-15">
          <mxGeometry y="78" width="336" height="26" as="geometry" />
        </mxCell>
        <mxCell id="R2CkASbWOf3mzK9Li32K-20" value="+ SiteSize: int" style="text;strokeColor=none;fillColor=none;align=left;verticalAlign=top;spacingLeft=4;spacingRight=4;overflow=hidden;rotatable=0;points=[[0,0.5],[1,0.5]];portConstraint=eastwest;" vertex="1" parent="R2CkASbWOf3mzK9Li32K-15">
          <mxGeometry y="104" width="336" height="26" as="geometry" />
        </mxCell>
        <mxCell id="R2CkASbWOf3mzK9Li32K-21" value="+ BoardCardItemsSource: List&lt;BoardCard&gt;" style="text;strokeColor=none;fillColor=none;align=left;verticalAlign=top;spacingLeft=4;spacingRight=4;overflow=hidden;rotatable=0;points=[[0,0.5],[1,0.5]];portConstraint=eastwest;" vertex="1" parent="R2CkASbWOf3mzK9Li32K-15">
          <mxGeometry y="130" width="336" height="26" as="geometry" />
        </mxCell>
        <mxCell id="R2CkASbWOf3mzK9Li32K-35" value="+ TesterInformation: TesterInformation" style="text;strokeColor=none;fillColor=none;align=left;verticalAlign=top;spacingLeft=4;spacingRight=4;overflow=hidden;rotatable=0;points=[[0,0.5],[1,0.5]];portConstraint=eastwest;" vertex="1" parent="R2CkASbWOf3mzK9Li32K-15">
          <mxGeometry y="156" width="336" height="26" as="geometry" />
        </mxCell>
        <mxCell id="R2CkASbWOf3mzK9Li32K-18" value="# xElement: XElement" style="text;strokeColor=none;fillColor=none;align=left;verticalAlign=top;spacingLeft=4;spacingRight=4;overflow=hidden;rotatable=0;points=[[0,0.5],[1,0.5]];portConstraint=eastwest;" vertex="1" parent="R2CkASbWOf3mzK9Li32K-15">
          <mxGeometry y="182" width="336" height="26" as="geometry" />
        </mxCell>
        <mxCell id="R2CkASbWOf3mzK9Li32K-22" value="Mapping" style="swimlane;fontStyle=0;childLayout=stackLayout;horizontal=1;startSize=26;fillColor=none;horizontalStack=0;resizeParent=1;resizeParentMax=0;resizeLast=0;collapsible=1;marginBottom=0;" vertex="1" parent="JoJN99l91C5nv3z_q42w-1">
          <mxGeometry x="804" y="570" width="190" height="104" as="geometry" />
        </mxCell>
        <mxCell id="R2CkASbWOf3mzK9Li32K-23" value="+ code: int" style="text;strokeColor=none;fillColor=none;align=left;verticalAlign=top;spacingLeft=4;spacingRight=4;overflow=hidden;rotatable=0;points=[[0,0.5],[1,0.5]];portConstraint=eastwest;" vertex="1" parent="R2CkASbWOf3mzK9Li32K-22">
          <mxGeometry y="26" width="190" height="26" as="geometry" />
        </mxCell>
        <mxCell id="R2CkASbWOf3mzK9Li32K-24" value="+ FieldItemsSource: List&lt;Field&gt;" style="text;strokeColor=none;fillColor=none;align=left;verticalAlign=top;spacingLeft=4;spacingRight=4;overflow=hidden;rotatable=0;points=[[0,0.5],[1,0.5]];portConstraint=eastwest;" vertex="1" parent="R2CkASbWOf3mzK9Li32K-22">
          <mxGeometry y="52" width="190" height="26" as="geometry" />
        </mxCell>
        <mxCell id="R2CkASbWOf3mzK9Li32K-25" value="# xElement: XElement" style="text;strokeColor=none;fillColor=none;align=left;verticalAlign=top;spacingLeft=4;spacingRight=4;overflow=hidden;rotatable=0;points=[[0,0.5],[1,0.5]];portConstraint=eastwest;" vertex="1" parent="R2CkASbWOf3mzK9Li32K-22">
          <mxGeometry y="78" width="190" height="26" as="geometry" />
        </mxCell>
        <mxCell id="R2CkASbWOf3mzK9Li32K-26" value="Field" style="swimlane;fontStyle=0;childLayout=stackLayout;horizontal=1;startSize=26;fillColor=none;horizontalStack=0;resizeParent=1;resizeParentMax=0;resizeLast=0;collapsible=1;marginBottom=0;" vertex="1" parent="JoJN99l91C5nv3z_q42w-1">
          <mxGeometry x="829" y="690" width="140" height="104" as="geometry" />
        </mxCell>
        <mxCell id="R2CkASbWOf3mzK9Li32K-27" value="+ code: int" style="text;strokeColor=none;fillColor=none;align=left;verticalAlign=top;spacingLeft=4;spacingRight=4;overflow=hidden;rotatable=0;points=[[0,0.5],[1,0.5]];portConstraint=eastwest;" vertex="1" parent="R2CkASbWOf3mzK9Li32K-26">
          <mxGeometry y="26" width="140" height="26" as="geometry" />
        </mxCell>
        <mxCell id="R2CkASbWOf3mzK9Li32K-28" value="+ Name: string" style="text;strokeColor=none;fillColor=none;align=left;verticalAlign=top;spacingLeft=4;spacingRight=4;overflow=hidden;rotatable=0;points=[[0,0.5],[1,0.5]];portConstraint=eastwest;" vertex="1" parent="R2CkASbWOf3mzK9Li32K-26">
          <mxGeometry y="52" width="140" height="26" as="geometry" />
        </mxCell>
        <mxCell id="R2CkASbWOf3mzK9Li32K-29" value="# xElement: XElement" style="text;strokeColor=none;fillColor=none;align=left;verticalAlign=top;spacingLeft=4;spacingRight=4;overflow=hidden;rotatable=0;points=[[0,0.5],[1,0.5]];portConstraint=eastwest;" vertex="1" parent="R2CkASbWOf3mzK9Li32K-26">
          <mxGeometry y="78" width="140" height="26" as="geometry" />
        </mxCell>
        <mxCell id="R2CkASbWOf3mzK9Li32K-30" value="TesterInformation" style="swimlane;fontStyle=0;childLayout=stackLayout;horizontal=1;startSize=26;fillColor=none;horizontalStack=0;resizeParent=1;resizeParentMax=0;resizeLast=0;collapsible=1;marginBottom=0;" vertex="1" parent="JoJN99l91C5nv3z_q42w-1">
          <mxGeometry x="760" y="430" width="278" height="130" as="geometry" />
        </mxCell>
        <mxCell id="R2CkASbWOf3mzK9Li32K-31" value="+ Version: string" style="text;strokeColor=none;fillColor=none;align=left;verticalAlign=top;spacingLeft=4;spacingRight=4;overflow=hidden;rotatable=0;points=[[0,0.5],[1,0.5]];portConstraint=eastwest;" vertex="1" parent="R2CkASbWOf3mzK9Li32K-30">
          <mxGeometry y="26" width="278" height="26" as="geometry" />
        </mxCell>
        <mxCell id="R2CkASbWOf3mzK9Li32K-32" value="+ FieldSize: int" style="text;strokeColor=none;fillColor=none;align=left;verticalAlign=top;spacingLeft=4;spacingRight=4;overflow=hidden;rotatable=0;points=[[0,0.5],[1,0.5]];portConstraint=eastwest;" vertex="1" parent="R2CkASbWOf3mzK9Li32K-30">
          <mxGeometry y="52" width="278" height="26" as="geometry" />
        </mxCell>
        <mxCell id="R2CkASbWOf3mzK9Li32K-33" value="+ MappingItemsSource: List&lt;Mapping&gt;" style="text;strokeColor=none;fillColor=none;align=left;verticalAlign=top;spacingLeft=4;spacingRight=4;overflow=hidden;rotatable=0;points=[[0,0.5],[1,0.5]];portConstraint=eastwest;" vertex="1" parent="R2CkASbWOf3mzK9Li32K-30">
          <mxGeometry y="78" width="278" height="26" as="geometry" />
        </mxCell>
        <mxCell id="R2CkASbWOf3mzK9Li32K-34" value="# xElement: XElement " style="text;strokeColor=none;fillColor=none;align=left;verticalAlign=top;spacingLeft=4;spacingRight=4;overflow=hidden;rotatable=0;points=[[0,0.5],[1,0.5]];portConstraint=eastwest;" vertex="1" parent="R2CkASbWOf3mzK9Li32K-30">
          <mxGeometry y="104" width="278" height="26" as="geometry" />
        </mxCell>
        <mxCell id="R2CkASbWOf3mzK9Li32K-36" value="TestProgramEditor" style="swimlane;fontStyle=0;childLayout=stackLayout;horizontal=1;startSize=26;fillColor=none;horizontalStack=0;resizeParent=1;resizeParentMax=0;resizeLast=0;collapsible=1;marginBottom=0;" vertex="1" parent="JoJN99l91C5nv3z_q42w-1">
          <mxGeometry x="136" y="920" width="278" height="312" as="geometry" />
        </mxCell>
        <mxCell id="R2CkASbWOf3mzK9Li32K-37" value="+ Version: string" style="text;strokeColor=none;fillColor=none;align=left;verticalAlign=top;spacingLeft=4;spacingRight=4;overflow=hidden;rotatable=0;points=[[0,0.5],[1,0.5]];portConstraint=eastwest;" vertex="1" parent="R2CkASbWOf3mzK9Li32K-36">
          <mxGeometry y="26" width="278" height="26" as="geometry" />
        </mxCell>
        <mxCell id="R2CkASbWOf3mzK9Li32K-38" value="+ HBinSize: int" style="text;strokeColor=none;fillColor=none;align=left;verticalAlign=top;spacingLeft=4;spacingRight=4;overflow=hidden;rotatable=0;points=[[0,0.5],[1,0.5]];portConstraint=eastwest;" vertex="1" parent="R2CkASbWOf3mzK9Li32K-36">
          <mxGeometry y="52" width="278" height="26" as="geometry" />
        </mxCell>
        <mxCell id="R2CkASbWOf3mzK9Li32K-39" value="+ SBinSize: int" style="text;strokeColor=none;fillColor=none;align=left;verticalAlign=top;spacingLeft=4;spacingRight=4;overflow=hidden;rotatable=0;points=[[0,0.5],[1,0.5]];portConstraint=eastwest;" vertex="1" parent="R2CkASbWOf3mzK9Li32K-36">
          <mxGeometry y="78" width="278" height="26" as="geometry" />
        </mxCell>
        <mxCell id="R2CkASbWOf3mzK9Li32K-41" value="+ PatternMemorySize: uint" style="text;strokeColor=none;fillColor=none;align=left;verticalAlign=top;spacingLeft=4;spacingRight=4;overflow=hidden;rotatable=0;points=[[0,0.5],[1,0.5]];portConstraint=eastwest;" vertex="1" parent="R2CkASbWOf3mzK9Li32K-36">
          <mxGeometry y="104" width="278" height="26" as="geometry" />
        </mxCell>
        <mxCell id="R2CkASbWOf3mzK9Li32K-42" value="+ PatternARowSize: uint" style="text;strokeColor=none;fillColor=none;align=left;verticalAlign=top;spacingLeft=4;spacingRight=4;overflow=hidden;rotatable=0;points=[[0,0.5],[1,0.5]];portConstraint=eastwest;" vertex="1" parent="R2CkASbWOf3mzK9Li32K-36">
          <mxGeometry y="130" width="278" height="26" as="geometry" />
        </mxCell>
        <mxCell id="R2CkASbWOf3mzK9Li32K-43" value="+ PatternParitySizeOfUnit: uint" style="text;strokeColor=none;fillColor=none;align=left;verticalAlign=top;spacingLeft=4;spacingRight=4;overflow=hidden;rotatable=0;points=[[0,0.5],[1,0.5]];portConstraint=eastwest;" vertex="1" parent="R2CkASbWOf3mzK9Li32K-36">
          <mxGeometry y="156" width="278" height="26" as="geometry" />
        </mxCell>
        <mxCell id="R2CkASbWOf3mzK9Li32K-44" value="+ PatternRowCntOfUnit: uint" style="text;strokeColor=none;fillColor=none;align=left;verticalAlign=top;spacingLeft=4;spacingRight=4;overflow=hidden;rotatable=0;points=[[0,0.5],[1,0.5]];portConstraint=eastwest;" vertex="1" parent="R2CkASbWOf3mzK9Li32K-36">
          <mxGeometry y="182" width="278" height="26" as="geometry" />
        </mxCell>
        <mxCell id="R2CkASbWOf3mzK9Li32K-45" value="+ PinItemsSource: List&lt;Pin&gt;" style="text;strokeColor=none;fillColor=none;align=left;verticalAlign=top;spacingLeft=4;spacingRight=4;overflow=hidden;rotatable=0;points=[[0,0.5],[1,0.5]];portConstraint=eastwest;" vertex="1" parent="R2CkASbWOf3mzK9Li32K-36">
          <mxGeometry y="208" width="278" height="26" as="geometry" />
        </mxCell>
        <mxCell id="R2CkASbWOf3mzK9Li32K-55" value="+ InterfaceCardItemsSource: List&lt;InterfaceCard&gt;" style="text;strokeColor=none;fillColor=none;align=left;verticalAlign=top;spacingLeft=4;spacingRight=4;overflow=hidden;rotatable=0;points=[[0,0.5],[1,0.5]];portConstraint=eastwest;" vertex="1" parent="R2CkASbWOf3mzK9Li32K-36">
          <mxGeometry y="234" width="278" height="26" as="geometry" />
        </mxCell>
        <mxCell id="R2CkASbWOf3mzK9Li32K-56" value="+ BoardCardItemsSource: List&lt;BoardCard&gt;" style="text;strokeColor=none;fillColor=none;align=left;verticalAlign=top;spacingLeft=4;spacingRight=4;overflow=hidden;rotatable=0;points=[[0,0.5],[1,0.5]];portConstraint=eastwest;" vertex="1" parent="R2CkASbWOf3mzK9Li32K-36">
          <mxGeometry y="260" width="278" height="26" as="geometry" />
        </mxCell>
        <mxCell id="R2CkASbWOf3mzK9Li32K-40" value="# xElement: XElement " style="text;strokeColor=none;fillColor=none;align=left;verticalAlign=top;spacingLeft=4;spacingRight=4;overflow=hidden;rotatable=0;points=[[0,0.5],[1,0.5]];portConstraint=eastwest;" vertex="1" parent="R2CkASbWOf3mzK9Li32K-36">
          <mxGeometry y="286" width="278" height="26" as="geometry" />
        </mxCell>
        <mxCell id="R2CkASbWOf3mzK9Li32K-46" value="InterfaceCard" style="swimlane;fontStyle=0;childLayout=stackLayout;horizontal=1;startSize=26;fillColor=none;horizontalStack=0;resizeParent=1;resizeParentMax=0;resizeLast=0;collapsible=1;marginBottom=0;" vertex="1" parent="JoJN99l91C5nv3z_q42w-1">
          <mxGeometry x="470" y="970" width="180" height="104" as="geometry" />
        </mxCell>
        <mxCell id="R2CkASbWOf3mzK9Li32K-47" value="+ code: int" style="text;strokeColor=none;fillColor=none;align=left;verticalAlign=top;spacingLeft=4;spacingRight=4;overflow=hidden;rotatable=0;points=[[0,0.5],[1,0.5]];portConstraint=eastwest;" vertex="1" parent="R2CkASbWOf3mzK9Li32K-46">
          <mxGeometry y="26" width="180" height="26" as="geometry" />
        </mxCell>
        <mxCell id="R2CkASbWOf3mzK9Li32K-48" value="+ PinItemsSource: List&lt;Pin&gt;" style="text;strokeColor=none;fillColor=none;align=left;verticalAlign=top;spacingLeft=4;spacingRight=4;overflow=hidden;rotatable=0;points=[[0,0.5],[1,0.5]];portConstraint=eastwest;" vertex="1" parent="R2CkASbWOf3mzK9Li32K-46">
          <mxGeometry y="52" width="180" height="26" as="geometry" />
        </mxCell>
        <mxCell id="R2CkASbWOf3mzK9Li32K-50" value="# xElement: XElement " style="text;strokeColor=none;fillColor=none;align=left;verticalAlign=top;spacingLeft=4;spacingRight=4;overflow=hidden;rotatable=0;points=[[0,0.5],[1,0.5]];portConstraint=eastwest;" vertex="1" parent="R2CkASbWOf3mzK9Li32K-46">
          <mxGeometry y="78" width="180" height="26" as="geometry" />
        </mxCell>
        <mxCell id="R2CkASbWOf3mzK9Li32K-51" value="BoardCard" style="swimlane;fontStyle=0;childLayout=stackLayout;horizontal=1;startSize=26;fillColor=none;horizontalStack=0;resizeParent=1;resizeParentMax=0;resizeLast=0;collapsible=1;marginBottom=0;" vertex="1" parent="JoJN99l91C5nv3z_q42w-1">
          <mxGeometry x="470" y="1100" width="180" height="104" as="geometry" />
        </mxCell>
        <mxCell id="R2CkASbWOf3mzK9Li32K-52" value="+ code: int" style="text;strokeColor=none;fillColor=none;align=left;verticalAlign=top;spacingLeft=4;spacingRight=4;overflow=hidden;rotatable=0;points=[[0,0.5],[1,0.5]];portConstraint=eastwest;" vertex="1" parent="R2CkASbWOf3mzK9Li32K-51">
          <mxGeometry y="26" width="180" height="26" as="geometry" />
        </mxCell>
        <mxCell id="R2CkASbWOf3mzK9Li32K-53" value="+ PinItemsSource: List&lt;Pin&gt;" style="text;strokeColor=none;fillColor=none;align=left;verticalAlign=top;spacingLeft=4;spacingRight=4;overflow=hidden;rotatable=0;points=[[0,0.5],[1,0.5]];portConstraint=eastwest;" vertex="1" parent="R2CkASbWOf3mzK9Li32K-51">
          <mxGeometry y="52" width="180" height="26" as="geometry" />
        </mxCell>
        <mxCell id="R2CkASbWOf3mzK9Li32K-54" value="# xElement: XElement " style="text;strokeColor=none;fillColor=none;align=left;verticalAlign=top;spacingLeft=4;spacingRight=4;overflow=hidden;rotatable=0;points=[[0,0.5],[1,0.5]];portConstraint=eastwest;" vertex="1" parent="R2CkASbWOf3mzK9Li32K-51">
          <mxGeometry y="78" width="180" height="26" as="geometry" />
        </mxCell>
        <mxCell id="R2CkASbWOf3mzK9Li32K-57" value="Signal" style="swimlane;fontStyle=0;childLayout=stackLayout;horizontal=1;startSize=26;fillColor=none;horizontalStack=0;resizeParent=1;resizeParentMax=0;resizeLast=0;collapsible=1;marginBottom=0;" vertex="1" parent="JoJN99l91C5nv3z_q42w-1">
          <mxGeometry x="250" y="1320" width="140" height="104" as="geometry" />
        </mxCell>
        <mxCell id="R2CkASbWOf3mzK9Li32K-58" value="+ PinSize: int" style="text;strokeColor=none;fillColor=none;align=left;verticalAlign=top;spacingLeft=4;spacingRight=4;overflow=hidden;rotatable=0;points=[[0,0.5],[1,0.5]];portConstraint=eastwest;" vertex="1" parent="R2CkASbWOf3mzK9Li32K-57">
          <mxGeometry y="26" width="140" height="26" as="geometry" />
        </mxCell>
        <mxCell id="R2CkASbWOf3mzK9Li32K-59" value="+ PinGroupSize: int" style="text;strokeColor=none;fillColor=none;align=left;verticalAlign=top;spacingLeft=4;spacingRight=4;overflow=hidden;rotatable=0;points=[[0,0.5],[1,0.5]];portConstraint=eastwest;" vertex="1" parent="R2CkASbWOf3mzK9Li32K-57">
          <mxGeometry y="52" width="140" height="26" as="geometry" />
        </mxCell>
        <mxCell id="R2CkASbWOf3mzK9Li32K-61" value="# xElement: XElement " style="text;strokeColor=none;fillColor=none;align=left;verticalAlign=top;spacingLeft=4;spacingRight=4;overflow=hidden;rotatable=0;points=[[0,0.5],[1,0.5]];portConstraint=eastwest;" vertex="1" parent="R2CkASbWOf3mzK9Li32K-57">
          <mxGeometry y="78" width="140" height="26" as="geometry" />
        </mxCell>
        <mxCell id="R2CkASbWOf3mzK9Li32K-62" value="FlowTable" style="swimlane;fontStyle=0;childLayout=stackLayout;horizontal=1;startSize=26;fillColor=none;horizontalStack=0;resizeParent=1;resizeParentMax=0;resizeLast=0;collapsible=1;marginBottom=0;" vertex="1" parent="JoJN99l91C5nv3z_q42w-1">
          <mxGeometry x="430" y="1320" width="320" height="260" as="geometry" />
        </mxCell>
        <mxCell id="R2CkASbWOf3mzK9Li32K-63" value="+ TestItemSize: int" style="text;strokeColor=none;fillColor=none;align=left;verticalAlign=top;spacingLeft=4;spacingRight=4;overflow=hidden;rotatable=0;points=[[0,0.5],[1,0.5]];portConstraint=eastwest;" vertex="1" parent="R2CkASbWOf3mzK9Li32K-62">
          <mxGeometry y="26" width="320" height="26" as="geometry" />
        </mxCell>
        <mxCell id="R2CkASbWOf3mzK9Li32K-64" value="+ PinGroupSize: int" style="text;strokeColor=none;fillColor=none;align=left;verticalAlign=top;spacingLeft=4;spacingRight=4;overflow=hidden;rotatable=0;points=[[0,0.5],[1,0.5]];portConstraint=eastwest;" vertex="1" parent="R2CkASbWOf3mzK9Li32K-62">
          <mxGeometry y="52" width="320" height="26" as="geometry" />
        </mxCell>
        <mxCell id="R2CkASbWOf3mzK9Li32K-66" value="+ CustomReportItemsSource: List&lt;Item&gt;" style="text;strokeColor=none;fillColor=none;align=left;verticalAlign=top;spacingLeft=4;spacingRight=4;overflow=hidden;rotatable=0;points=[[0,0.5],[1,0.5]];portConstraint=eastwest;" vertex="1" parent="R2CkASbWOf3mzK9Li32K-62">
          <mxGeometry y="78" width="320" height="26" as="geometry" />
        </mxCell>
        <mxCell id="R2CkASbWOf3mzK9Li32K-67" value="+ StopOnFailItemsSource: List&lt;Item&gt;" style="text;strokeColor=none;fillColor=none;align=left;verticalAlign=top;spacingLeft=4;spacingRight=4;overflow=hidden;rotatable=0;points=[[0,0.5],[1,0.5]];portConstraint=eastwest;" vertex="1" parent="R2CkASbWOf3mzK9Li32K-62">
          <mxGeometry y="104" width="320" height="26" as="geometry" />
        </mxCell>
        <mxCell id="R2CkASbWOf3mzK9Li32K-68" value="+ ContinueOnACFailItemsSource: List&lt;Item&gt;" style="text;strokeColor=none;fillColor=none;align=left;verticalAlign=top;spacingLeft=4;spacingRight=4;overflow=hidden;rotatable=0;points=[[0,0.5],[1,0.5]];portConstraint=eastwest;" vertex="1" parent="R2CkASbWOf3mzK9Li32K-62">
          <mxGeometry y="130" width="320" height="26" as="geometry" />
        </mxCell>
        <mxCell id="R2CkASbWOf3mzK9Li32K-69" value="+ BinTypeItemsSource: List&lt;Item&gt;" style="text;strokeColor=none;fillColor=none;align=left;verticalAlign=top;spacingLeft=4;spacingRight=4;overflow=hidden;rotatable=0;points=[[0,0.5],[1,0.5]];portConstraint=eastwest;" vertex="1" parent="R2CkASbWOf3mzK9Li32K-62">
          <mxGeometry y="156" width="320" height="26" as="geometry" />
        </mxCell>
        <mxCell id="R2CkASbWOf3mzK9Li32K-70" value="+ AutoPowerDownItemsSource: List&lt;Item&gt;" style="text;strokeColor=none;fillColor=none;align=left;verticalAlign=top;spacingLeft=4;spacingRight=4;overflow=hidden;rotatable=0;points=[[0,0.5],[1,0.5]];portConstraint=eastwest;" vertex="1" parent="R2CkASbWOf3mzK9Li32K-62">
          <mxGeometry y="182" width="320" height="26" as="geometry" />
        </mxCell>
        <mxCell id="R2CkASbWOf3mzK9Li32K-71" value="+ SiteControlItemsSource: List&lt;Item&gt;" style="text;strokeColor=none;fillColor=none;align=left;verticalAlign=top;spacingLeft=4;spacingRight=4;overflow=hidden;rotatable=0;points=[[0,0.5],[1,0.5]];portConstraint=eastwest;" vertex="1" parent="R2CkASbWOf3mzK9Li32K-62">
          <mxGeometry y="208" width="320" height="26" as="geometry" />
        </mxCell>
        <mxCell id="R2CkASbWOf3mzK9Li32K-65" value="# xElement: XElement " style="text;strokeColor=none;fillColor=none;align=left;verticalAlign=top;spacingLeft=4;spacingRight=4;overflow=hidden;rotatable=0;points=[[0,0.5],[1,0.5]];portConstraint=eastwest;" vertex="1" parent="R2CkASbWOf3mzK9Li32K-62">
          <mxGeometry y="234" width="320" height="26" as="geometry" />
        </mxCell>
        <mxCell id="R2CkASbWOf3mzK9Li32K-72" value="Limit" style="swimlane;fontStyle=0;childLayout=stackLayout;horizontal=1;startSize=26;fillColor=none;horizontalStack=0;resizeParent=1;resizeParentMax=0;resizeLast=0;collapsible=1;marginBottom=0;" vertex="1" parent="JoJN99l91C5nv3z_q42w-1">
          <mxGeometry x="804" y="1320" width="216" height="130" as="geometry" />
        </mxCell>
        <mxCell id="R2CkASbWOf3mzK9Li32K-73" value="+ LimitItemSize: int" style="text;strokeColor=none;fillColor=none;align=left;verticalAlign=top;spacingLeft=4;spacingRight=4;overflow=hidden;rotatable=0;points=[[0,0.5],[1,0.5]];portConstraint=eastwest;" vertex="1" parent="R2CkASbWOf3mzK9Li32K-72">
          <mxGeometry y="26" width="216" height="26" as="geometry" />
        </mxCell>
        <mxCell id="R2CkASbWOf3mzK9Li32K-74" value="+ UnitTypeSource: List&lt;Item&gt;" style="text;strokeColor=none;fillColor=none;align=left;verticalAlign=top;spacingLeft=4;spacingRight=4;overflow=hidden;rotatable=0;points=[[0,0.5],[1,0.5]];portConstraint=eastwest;" vertex="1" parent="R2CkASbWOf3mzK9Li32K-72">
          <mxGeometry y="52" width="216" height="26" as="geometry" />
        </mxCell>
        <mxCell id="R2CkASbWOf3mzK9Li32K-76" value="+ ConditionItemsSource: List&lt;Item&gt;" style="text;strokeColor=none;fillColor=none;align=left;verticalAlign=top;spacingLeft=4;spacingRight=4;overflow=hidden;rotatable=0;points=[[0,0.5],[1,0.5]];portConstraint=eastwest;" vertex="1" parent="R2CkASbWOf3mzK9Li32K-72">
          <mxGeometry y="78" width="216" height="26" as="geometry" />
        </mxCell>
        <mxCell id="R2CkASbWOf3mzK9Li32K-75" value="# xElement: XElement " style="text;strokeColor=none;fillColor=none;align=left;verticalAlign=top;spacingLeft=4;spacingRight=4;overflow=hidden;rotatable=0;points=[[0,0.5],[1,0.5]];portConstraint=eastwest;" vertex="1" parent="R2CkASbWOf3mzK9Li32K-72">
          <mxGeometry y="104" width="216" height="26" as="geometry" />
        </mxCell>
        <mxCell id="R2CkASbWOf3mzK9Li32K-77" value="TimingSet" style="swimlane;fontStyle=0;childLayout=stackLayout;horizontal=1;startSize=26;fillColor=none;horizontalStack=0;resizeParent=1;resizeParentMax=0;resizeLast=0;collapsible=1;marginBottom=0;" vertex="1" parent="JoJN99l91C5nv3z_q42w-1">
          <mxGeometry x="1060" y="1320" width="216" height="156" as="geometry" />
        </mxCell>
        <mxCell id="R2CkASbWOf3mzK9Li32K-78" value="+ TimingSetSize: int" style="text;strokeColor=none;fillColor=none;align=left;verticalAlign=top;spacingLeft=4;spacingRight=4;overflow=hidden;rotatable=0;points=[[0,0.5],[1,0.5]];portConstraint=eastwest;" vertex="1" parent="R2CkASbWOf3mzK9Li32K-77">
          <mxGeometry y="26" width="216" height="26" as="geometry" />
        </mxCell>
        <mxCell id="R2CkASbWOf3mzK9Li32K-79" value="+ PerSetSize: int" style="text;strokeColor=none;fillColor=none;align=left;verticalAlign=top;spacingLeft=4;spacingRight=4;overflow=hidden;rotatable=0;points=[[0,0.5],[1,0.5]];portConstraint=eastwest;" vertex="1" parent="R2CkASbWOf3mzK9Li32K-77">
          <mxGeometry y="52" width="216" height="26" as="geometry" />
        </mxCell>
        <mxCell id="R2CkASbWOf3mzK9Li32K-80" value="+ ConditionItemsSource: List&lt;Item&gt;" style="text;strokeColor=none;fillColor=none;align=left;verticalAlign=top;spacingLeft=4;spacingRight=4;overflow=hidden;rotatable=0;points=[[0,0.5],[1,0.5]];portConstraint=eastwest;" vertex="1" parent="R2CkASbWOf3mzK9Li32K-77">
          <mxGeometry y="78" width="216" height="26" as="geometry" />
        </mxCell>
        <mxCell id="R2CkASbWOf3mzK9Li32K-82" value="+ FormatItemsSource: List&lt;Item&gt;" style="text;strokeColor=none;fillColor=none;align=left;verticalAlign=top;spacingLeft=4;spacingRight=4;overflow=hidden;rotatable=0;points=[[0,0.5],[1,0.5]];portConstraint=eastwest;" vertex="1" parent="R2CkASbWOf3mzK9Li32K-77">
          <mxGeometry y="104" width="216" height="26" as="geometry" />
        </mxCell>
        <mxCell id="R2CkASbWOf3mzK9Li32K-81" value="# xElement: XElement " style="text;strokeColor=none;fillColor=none;align=left;verticalAlign=top;spacingLeft=4;spacingRight=4;overflow=hidden;rotatable=0;points=[[0,0.5],[1,0.5]];portConstraint=eastwest;" vertex="1" parent="R2CkASbWOf3mzK9Li32K-77">
          <mxGeometry y="130" width="216" height="26" as="geometry" />
        </mxCell>
      </root>
    </mxGraphModel>
  </diagram>
</mxfile>
